# xmcd
#
# Track frame offsets:
#	182
#	7120
#	20282
#	54215
#	82222
#	100905
#	120292
#	148477
#	152685
#	170527
#	191947
#	216455
#	242385
#	276270
#	310905
#
# Disc length: 4193 seconds
#
# Revision: 12
# Processed by: cddbd v1.5.2PL0 Copyright (c) Steve Scherf et al.
# Submitted via: EasyCDDAExtractor 10.0.3.1
#
DISCID=d4105f0f
DTITLE=Quincy Jones - Q's Jook Joint
DYEAR=1995
DGENRE=R&B
TTITLE0=Jook Joint Intro
TTITLE1=Let The Good Times Roll
TTITLE2=Cool Joe, Mean Joe (Killer Joe)
TTITLE3=You Put A Move On My Heart
TTITLE4=Rock With You
TTITLE5=Moody's Mood For Love
TTITLE6=Stomp
TTITLE7=Jook Joint Reprise
TTITLE8=Do Nothin' Till You Hear From Me
TTITLE9=Is It Love That We're Missin'
TTITLE10=Heaven's Girl
TTITLE11=Stuff Like That
TTITLE12=Slow Jams
TTITLE13=At The End Of The Day
TTITLE14=Jook Joint Outro (feat. Barry White, Toots Thielemans and Tamia)
EXTD=YEAR: 1995
EXTT0=
EXTT1=
EXTT2=
EXTT3=
EXTT4=
EXTT5=
EXTT6=
EXTT7=
EXTT8=
EXTT9=
EXTT10=
EXTT11=
EXTT12=
EXTT13=
EXTT14=
PLAYORDER=
